<svg xmlns="http://www.w3.org/2000/svg" xmlns:xlink="http://www.w3.org/1999/xlink" width="58.342" height="60" viewBox="0 0 58.342 60"><defs><style>.a{fill:none;}.b{clip-path:url(#a);}.c{fill:#de7338;}</style><clipPath id="a"><rect class="a" width="58.342" height="60"/></clipPath></defs><g transform="translate(0 0)"><g class="b" transform="translate(0 0.001)"><path d="M54.7,40.69a3.5,3.5,0,0,0-2.5,1.1l-.247.247-.014-.014c-.542.542-2.059,2.045-3.693,3.672l-.858.865c-1.743,1.736-3.391,3.377-3.933,3.974a1.03,1.03,0,0,0,1.517,1.394c.474-.515,2.917-2.966,4.723-4.764l4-3.988a1.4,1.4,0,0,1,1-.426,1.734,1.734,0,0,1,1.585,1.887,2.08,2.08,0,0,1-.3,1.1l.014.034-.117.144c-.062.075-8.305,9.96-13.576,16.129-2.032,2.375-4.187,3.528-6.589,3.528H19.435a6.41,6.41,0,0,0-4.777,1.62l-3.885,3.8a1.038,1.038,0,0,0-.034,1.462,1,1,0,0,0,.714.316,1.024,1.024,0,0,0,.741-.281l3.912-3.83c.885-.865,1.812-1.023,3.329-1.023h16.28c2.992,0,5.731-1.428,8.147-4.255C49.146,57.19,57.417,47.265,57.5,47.162a4.184,4.184,0,0,0,.845-2.526A3.808,3.808,0,0,0,54.7,40.69M40.464,51.342a1.04,1.04,0,0,0-.824-.419H18.494c-2.464,0-5.614.261-8.106,2.3L.375,61.418a1.033,1.033,0,0,0-.137,1.454,1.011,1.011,0,0,0,.7.371.979.979,0,0,0,.755-.233l10-8.194c1.551-1.27,3.644-1.833,6.8-1.833H38.94l.082.226a3.214,3.214,0,0,1-.26,2.594,2.926,2.926,0,0,1-2.286,1.723.8.8,0,0,0-.137-.021H23.278a1.1,1.1,0,0,0-.741.3.993.993,0,0,0-.309.721,1.015,1.015,0,0,0,.288.734,1.032,1.032,0,0,0,.728.309L36.4,59.544a4.619,4.619,0,0,0,4.18-2.78,5.012,5.012,0,0,0-.117-5.422" transform="translate(0 -12.763)"/><path class="c" d="M34.964,0A16.512,16.512,0,0,0,18.471,16.493a16.267,16.267,0,0,0,1.7,7.207l.055.11-1.743,7.948a1.027,1.027,0,0,0,.782,1.222,1.012,1.012,0,0,0,.454,0l7.907-1.764.11.048a16.324,16.324,0,0,0,7.227,1.75A16.507,16.507,0,0,0,34.964,0m0,30.954a14.5,14.5,0,0,1-6.809-1.716,1.012,1.012,0,0,0-.706-.1l-6.623,1.469,1.469-6.637a1.009,1.009,0,0,0-.1-.707,14.437,14.437,0,1,1,12.766,7.687" transform="translate(-5.79 0)"/><path class="c" d="M30.948,21.66a1.647,1.647,0,0,0-1.63,1.651,1.63,1.63,0,0,0,3.26,0,1.647,1.647,0,0,0-1.63-1.651" transform="translate(-9.196 -6.794)"/><path class="c" d="M41.761,21.66a1.647,1.647,0,0,0-1.63,1.651,1.63,1.63,0,1,0,3.26,0,1.647,1.647,0,0,0-1.63-1.651" transform="translate(-12.587 -6.794)"/><path class="c" d="M52.573,21.66a1.647,1.647,0,0,0-1.63,1.651,1.63,1.63,0,1,0,3.26,0,1.647,1.647,0,0,0-1.63-1.651" transform="translate(-15.979 -6.794)"/></g></g></svg>