<svg xmlns="http://www.w3.org/2000/svg" xmlns:xlink="http://www.w3.org/1999/xlink" width="50.436" height="60" viewBox="0 0 50.436 60"><defs><style>.a{fill:none;}.b{clip-path:url(#a);}.c{fill:#de7338;}</style><clipPath id="a"><rect class="a" width="50.436" height="60" transform="translate(0 0)"/></clipPath></defs><g transform="translate(0 0)"><g class="b" transform="translate(0 0)"><path d="M44.438,39.621l.233-.259a22.768,22.768,0,0,0,5.717-16.593A23.069,23.069,0,0,0,37.869,3.794a.9.9,0,0,0-.72-.057.948.948,0,0,0-.556.468.966.966,0,0,0-.057.726.948.948,0,0,0,.474.55A21.175,21.175,0,0,1,48.525,22.9a20.858,20.858,0,0,1-5.8,15.8.955.955,0,0,0-.253.91l3.36,11.742a1.26,1.26,0,0,1-.859,1.542l-22.7,6.461a1.266,1.266,0,0,1-1.522-.834l-1.769-6.19a.96.96,0,0,0-.909-.682H9.59A2.992,2.992,0,0,1,6.6,48.654V40.316a.956.956,0,0,0-.651-.9l-3.48-1.156a.937.937,0,0,1-.505-.524.949.949,0,0,1,.013-.733L5.6,28.89a11.483,11.483,0,0,0,1.01-4.712A20.943,20.943,0,0,1,18.339,5.348a.949.949,0,0,0-.417-1.8.96.96,0,0,0-.418.094A22.861,22.861,0,0,0,4.7,24.171a9.654,9.654,0,0,1-.84,3.948L.241,36.236a2.864,2.864,0,0,0,1.712,3.872l2.755.9v7.625A4.893,4.893,0,0,0,9.6,53.524h7.756l1.567,5.514A3.165,3.165,0,0,0,22.8,61.191L45.5,54.7a3.138,3.138,0,0,0,2.147-3.847Z" transform="translate(0 -1.307)"/><path class="c" d="M40.272,18.84l-.3-.183V18.31A163.514,163.514,0,0,0,38.927,1.261a.957.957,0,0,0-.733-.79A20.7,20.7,0,0,0,35.2.049a21.716,21.716,0,0,0-4.428.158A.948.948,0,0,0,30,1.287a149.389,149.389,0,0,1,1.137,16.707v.386l-.335.177a9.409,9.409,0,0,0-.884,16.056l.479.328-.284.5a12.393,12.393,0,0,1-4.484,4.586l-.411.24-.455-.43a3.642,3.642,0,0,0-2.419-.909c-.076,0-.158.006-.234.012a3.674,3.674,0,0,0-3.449,3.911A3.7,3.7,0,0,0,22.334,46.3h.277a3.693,3.693,0,0,0,3.405-3.911l-.025-.4.341-.189a14.348,14.348,0,0,0,5.507-5.615l.24-.455.493.146a9.436,9.436,0,0,0,7.7-17.042M23.717,43.79a1.785,1.785,0,0,1-1.213.639h-.051a.687.687,0,0,1-.114.006,1.8,1.8,0,0,1-1.788-1.686A1.736,1.736,0,0,1,21,41.454a1.788,1.788,0,0,1,3.127,1.03,1.759,1.759,0,0,1-.411,1.307M32.674,1.932a19.184,19.184,0,0,1,2.426,0,14.638,14.638,0,0,1,1.572.177l.467.076.057.474c.43,3.682.752,9.033.865,14.319l.013.808-.783-.176a8.926,8.926,0,0,0-3.544-.089l-.72.126-.019-.733c-.126-5.2-.467-10.542-.922-14.281l-.076-.664Zm2.57,32.491a7.58,7.58,0,1,1,7.58-7.58,7.586,7.586,0,0,1-7.58,7.58" transform="translate(-6.87 0)"/></g></g></svg>