<svg xmlns="http://www.w3.org/2000/svg" xmlns:xlink="http://www.w3.org/1999/xlink" width="49.628" height="60" viewBox="0 0 49.628 60"><defs><style>.a{fill:none;}.b{clip-path:url(#a);}.c{fill:#de7338;}</style><clipPath id="a"><rect class="a" width="49.628" height="60"/></clipPath></defs><g class="b"><path class="c" d="M24.678,7.431A16.049,16.049,0,1,0,40.727,23.48,16.049,16.049,0,0,0,24.678,7.431m0,30.054a14,14,0,1,1,14-14,14,14,0,0,1-14,14" transform="translate(0.136 0.117)"/><path class="c" d="M49.628,23.6l-5.935-6.137,1.2-8.451L36.482,7.537,32.482,0,24.814,3.75,17.146,0l-4,7.539L4.739,9.015l1.2,8.451L0,23.6l5.935,6.134-1.2,8.449,8.407,1.477,4,7.538,7.668-3.746L32.482,47.2l4-7.538,8.407-1.478-1.2-8.45ZM35.143,37.82,31.6,44.492l-6.787-3.32-6.787,3.317-3.542-6.672L7.044,36.51,8.1,29.029,2.849,23.6,8.1,18.172,7.044,10.687l7.441-1.3L18.027,2.71l6.787,3.317L31.6,2.71l3.542,6.673,7.446,1.3-1.063,7.485L46.779,23.6l-5.253,5.43,1.063,7.477Z"/><path d="M38.778,40.458a1.024,1.024,0,1,0-1.959.593c.005.017.01.034.016.051l4.317,13.04L38.617,53.4a1.023,1.023,0,0,0-1.031.276l-1.93,2.037-2.1-7.253a1.024,1.024,0,1,0-1.984.509c.006.019.011.04.017.058L34.187,58a1.024,1.024,0,0,0,1.727.422l2.726-2.883,3.809,1.116a1.021,1.021,0,0,0,1.26-1.3Z" transform="translate(0.496 0.625)"/><path d="M16.658,47.809a1.028,1.028,0,0,0-1.35.523L11.8,56.287l-1.614-2.275a1,1,0,0,0-.981-.421l-2.725.394,5.6-12.778a1.024,1.024,0,0,0-1.876-.823L3.863,54.848a1.021,1.021,0,0,0,.124,1.03,1,1,0,0,0,.961.393L8.876,55.7l2.295,3.24a1.025,1.025,0,0,0,.836.432.681.681,0,0,0,.1-.005,1.028,1.028,0,0,0,.835-.61l4.24-9.6a1.024,1.024,0,0,0-.524-1.346" transform="translate(0.059 0.625)"/><path class="c" d="M22.883,30.055l-6.9-5.692,1.492-1.82,5.133,4.2,8.771-10.124,1.773,1.539Z" transform="translate(0.251 0.261)"/></g></svg>